<svg version="1.1" id="Layer_1" xmlns="http://www.w3.org/2000/svg" xmlns:xlink="http://www.w3.org/1999/xlink" x="0px" y="0px"
	 width="100%" viewBox="0 0 304 304" enable-background="new 0 0 304 304" xml:space="preserve">
<path fill="#000000" opacity="1.000000" stroke="none" 
	d="
M171.001556,86.001602 
	C173.211609,84.537918 175.392059,82.508446 178.141861,84.854446 
	C180.796387,87.119156 180.548828,89.536972 178.629807,92.324059 
	C176.832047,94.935036 179.130417,95.894936 181.067581,96.488472 
	C187.823074,98.558342 192.515350,93.289055 190.983765,84.091507 
	C190.320328,86.733047 189.914536,88.487602 188.584335,89.722183 
	C187.238678,90.971123 185.783966,91.447617 184.036179,90.574806 
	C182.420410,89.767929 181.088455,88.780632 181.964890,86.721695 
	C182.487411,85.494148 182.367401,84.441772 181.557480,83.469971 
	C178.675140,80.011581 179.195129,76.511009 182.065735,73.597389 
	C185.074310,70.543732 188.721893,71.238670 192.203354,73.113258 
	C192.773911,73.420479 193.324753,73.764328 194.013626,74.166527 
	C198.262146,69.591820 203.926743,68.614861 209.256470,67.070801 
	C210.806808,69.307281 209.570984,70.805222 209.029663,72.256180 
	C203.969162,85.820221 198.732819,99.319511 193.779434,112.922043 
	C192.554123,116.286850 190.764526,117.463745 187.199341,117.439621 
	C165.709259,117.294212 144.217575,117.327110 122.726860,117.412560 
	C119.723770,117.424492 117.778435,116.734016 116.636902,113.636795 
	C111.341774,99.269920 105.862244,84.971016 100.449303,70.647560 
	C100.100220,69.723793 99.599136,68.807068 100.289536,67.823799 
	C105.198357,67.642860 111.031464,69.854431 116.067726,73.835098 
	C118.214401,73.166527 120.105598,71.685181 122.569054,71.653633 
	C126.948952,71.597549 130.046982,74.135559 130.229782,78.435799 
	C130.387970,82.157333 127.488640,85.140587 127.837006,89.194557 
	C128.019150,91.314209 122.966293,91.588234 121.196465,89.324501 
	C120.328056,88.213768 119.863594,86.787216 118.999947,85.074486 
	C117.519852,89.179733 118.731804,92.193680 121.214455,94.885582 
	C123.289062,97.135048 126.007942,97.206093 128.637741,96.499825 
	C131.052414,95.851326 133.139938,94.702377 130.893478,91.575531 
	C129.370316,89.455421 129.410675,87.153061 131.328140,85.204102 
	C132.572952,83.938843 134.218109,83.325104 135.897034,84.130630 
	C138.431641,85.346718 139.626511,87.471138 138.896133,90.279419 
	C138.011185,93.681923 140.163422,93.931854 142.512726,93.929062 
	C149.280914,93.921013 152.095978,87.373100 148.035065,79.823242 
	C147.655777,81.789207 148.137955,83.388535 147.397156,84.804840 
	C146.077560,87.327713 141.582214,88.770813 140.933014,86.734741 
	C139.767944,83.080643 136.290771,81.252205 135.148483,77.843315 
	C133.444260,72.757446 137.134537,68.001175 143.164688,68.013962 
	C145.745117,68.019432 146.822800,67.429405 147.962006,65.034714 
	C149.712662,61.354702 152.301376,58.073372 155.039047,53.843227 
	C157.700012,58.101860 160.200897,61.712723 162.253799,65.562485 
	C163.214859,67.364777 163.733276,68.464653 166.201248,68.169716 
	C169.891754,67.728683 173.246887,68.944267 174.696014,72.796654 
	C176.102539,76.535812 175.047775,79.701660 171.591904,81.838562 
	C169.970276,82.841278 169.609009,83.952202 170.564407,85.930084 
	C164.208496,88.696869 161.922058,86.931961 162.280090,79.864082 
	C159.663925,82.530846 159.808517,85.684586 160.436172,88.764267 
	C161.208557,92.554108 164.881866,94.594063 168.846985,93.869720 
	C173.146683,93.084259 170.542313,90.061508 170.827087,87.977074 
	C170.916473,87.322853 170.945114,86.660324 171.001556,86.001602 
z"/>
<path fill="#000000" opacity="1.000000" stroke="none" 
	d="
M100.856567,220.991058 
	C96.709991,212.268356 94.575516,203.503983 94.622299,194.152573 
	C94.732292,172.167587 94.761665,150.180771 94.571541,128.196884 
	C94.533134,123.755890 95.724937,121.950333 100.405273,121.964767 
	C136.880432,122.077263 173.356201,122.038528 209.831558,121.948860 
	C213.759979,121.939201 215.452667,123.103127 215.421783,127.380646 
	C215.251022,151.030533 215.520950,174.684219 215.273270,198.332764 
	C215.008911,223.574875 194.492126,247.353058 168.415802,253.179276 
	C141.022537,259.299744 114.807693,246.912399 100.856567,220.991058 
M164.719101,249.369263 
	C165.854614,249.114487 166.990509,248.861450 168.125580,248.604736 
	C190.060913,243.643616 209.040649,223.337418 210.478592,201.476791 
	C212.030411,177.884689 210.861023,154.199417 211.000534,130.555420 
	C211.016449,127.856735 209.993469,126.786728 207.117477,126.797028 
	C172.826141,126.919884 138.534317,126.971420 104.242859,126.908737 
	C100.326004,126.901581 98.968872,128.337387 98.998222,132.179764 
	C99.166161,154.160187 99.070862,176.142914 99.293770,198.122528 
	C99.401863,208.780289 103.252815,218.352585 109.564262,226.786057 
	C123.152405,244.942657 141.536484,252.024734 164.719101,249.369263 
z"/>
<path fill="#000000" opacity="1.000000" stroke="none" 
	d="
M144.288620,155.834442 
	C147.637985,159.915421 150.360306,163.696457 145.607544,168.265915 
	C144.246582,169.574387 145.090027,171.062057 146.006363,172.324692 
	C148.344360,175.546219 150.951843,178.512833 154.430939,181.479019 
	C161.733826,172.812088 168.797119,164.444412 175.843323,156.062347 
	C181.094055,149.816116 186.314148,143.544144 191.565659,137.298569 
	C193.449020,135.058701 195.568085,132.940109 198.793076,134.226990 
	C201.890671,135.463028 202.431274,138.337234 202.314514,141.310654 
	C202.249710,142.960968 202.246994,144.704132 201.716003,146.231506 
	C197.263351,159.039658 190.904694,170.861954 183.074615,181.922913 
	C179.862167,186.460892 175.540314,188.819717 170.064896,189.221054 
	C168.038513,189.369583 166.099228,189.714767 164.751099,191.463516 
	C164.450455,193.511887 166.060471,194.442337 167.172272,195.570236 
	C173.716141,202.208786 180.324417,208.783798 186.880692,215.410217 
	C187.930176,216.470901 188.924835,217.614426 189.776810,218.836761 
	C192.793854,223.165222 192.833405,227.181519 189.977127,229.695480 
	C187.267502,232.080399 183.122559,231.364944 179.268295,227.753754 
	C175.557281,224.276794 173.686783,219.501892 170.757202,215.466324 
	C166.955078,210.228745 163.301788,204.883118 159.754089,199.825882 
	C157.052994,199.799133 156.690948,201.712402 155.781921,202.998260 
	C150.304047,210.746902 145.060699,218.673462 139.309387,226.212860 
	C134.589920,232.399628 129.398300,231.977554 124.669174,225.788834 
	C121.380165,221.484711 123.934975,218.212524 126.464043,215.109756 
	C133.195969,206.850647 139.953796,198.602081 147.018433,190.630356 
	C149.572357,187.748520 149.679504,185.639938 147.107895,183.020844 
	C145.476532,181.359344 143.988998,179.556198 142.444611,177.809830 
	C140.289474,175.372818 138.120087,173.872299 134.781601,176.215637 
	C132.429001,177.866974 129.899109,177.079453 128.011154,175.054886 
	C120.731728,167.248825 114.358742,158.694672 107.798561,150.297119 
	C106.798378,149.016830 106.291275,147.561844 107.690369,146.280899 
	C109.241318,144.860947 110.805092,145.414795 112.088989,146.761185 
	C115.880653,150.737427 119.605316,154.777542 123.394241,158.756454 
	C124.476234,159.892700 125.009140,161.723129 128.112411,161.898895 
	C124.004654,156.709747 120.270210,152.184937 116.768806,147.486465 
	C115.056625,145.188934 110.718071,142.722092 114.235802,139.697998 
	C117.671852,136.744141 119.581047,141.177139 121.590340,143.313324 
	C124.979393,146.916382 128.225662,150.653763 131.922775,154.023163 
	C130.691772,149.583099 127.265839,146.618881 124.859520,142.999252 
	C124.125946,141.895798 123.067215,141.002167 122.377411,139.877487 
	C121.379456,138.250397 119.566620,136.426270 121.735451,134.608902 
	C123.901077,132.794205 125.438942,134.719955 126.752785,136.174149 
	C132.558426,142.600037 138.297943,149.085678 144.288620,155.834442 
z"/>
</svg>