<svg width="50" height="50" viewBox="0 0 50 50" fill="none" xmlns="http://www.w3.org/2000/svg">
<g clip-path="url(#clip0_135_2430)">
<path d="M10.0211 17.2652H14.9609L39.8154 17.2963V34.6597L39.7844 35.8421L39.7222 36.6823L39.5669 37.8025L39.4426 38.4248L39.1941 39.3895L38.9145 40.2296L38.5727 41.0698L38.2931 41.6921L37.9203 42.3767L37.6096 42.8746L37.4543 43.1546L37.1436 43.6214L36.7397 44.1815L36.3979 44.6171L36.0251 45.0528L35.7455 45.364L35.3727 45.7685L34.9067 46.173L34.596 46.4531L34.161 46.7953L33.8504 47.0443L33.2911 47.4488L32.7008 47.8222L32.0484 48.1956L31.3338 48.569L30.5571 48.9113L29.7804 49.1914L29.128 49.4092L28.1338 49.6581L27.0154 49.8759L25.8348 50.0004H24.0018L22.9765 49.9071L21.4852 49.627L20.3668 49.3158L19.4347 49.0047L18.5027 48.6001L17.8192 48.2578L17.3842 48.0089L16.6386 47.5422L16.2969 47.2932L15.8619 46.982L15.4269 46.6398L15.0852 46.3286L14.8367 46.1108L14.4638 45.7996V45.7374L14.3396 45.6751L14.091 45.4262L13.8735 45.1773L13.4697 44.7416L13.0968 44.2437L12.6929 43.6836L12.3512 43.1235L12.0405 42.6568L11.5745 41.7855L11.0774 40.6964L10.7667 39.8873L10.5803 39.2961L10.3007 38.1759L10.1764 37.4913L10.0522 36.4956L10.0211 36.0599L9.99002 35.1887V17.2963L10.0211 17.2652ZM10.7978 18.1676V33.695L10.8289 35.6243L10.9221 36.7445L11.0463 37.6158L11.2327 38.4871L11.5434 39.5139L11.7609 40.1052L12.0716 40.852L12.5065 41.7544L12.8172 42.2834L13.0968 42.7501L13.5007 43.3102L13.8114 43.7148L14.091 44.057L14.4328 44.4304L14.6502 44.6794L15.0231 45.0839L15.5201 45.5818L15.7687 45.7996L16.2658 46.2041L16.8561 46.6086L17.1978 46.8576L18.0677 47.3555L18.7512 47.7289L19.5279 48.1023L20.4289 48.4446L21.1746 48.6624L22.3241 48.9113L23.3183 49.0669L23.7221 49.098H25.9901L26.6736 49.0358L27.4814 48.9113L28.693 48.6313L29.6872 48.3201L30.4329 48.0089L31.2096 47.6355L31.9552 47.231L32.8251 46.702L33.695 46.0485L34.13 45.6751L34.3785 45.4262L34.6271 45.2084L34.9999 44.835L35.2174 44.586L35.4659 44.3371L35.7455 43.9948L35.963 43.7459L36.2737 43.3413L36.6465 42.8124L37.0814 42.1278L37.5475 41.2254L37.7649 40.7275L37.9203 40.3852L38.1999 39.6384L38.4174 38.9849L38.6659 38.0514L38.7902 37.4291L38.9145 36.4956L38.9766 35.6243L39.0077 32.9793V18.1987L38.9766 18.1676H10.7978Z" fill="white"/>
<path d="M24.8793 0H25.0005L25.1217 0.14549L25.3885 0.751697L25.631 1.16392L25.8249 1.43065L26.0189 1.67313L26.2857 1.98836L26.5766 2.40058L26.7221 2.78855L26.7706 3.24927L26.7221 3.66149L26.6009 3.95247H26.6251L26.9646 3.70999L27.3526 3.516L27.6436 3.41901L27.8133 3.39476H28.2013L28.6135 3.49176L29.1227 3.73424L29.3652 3.92823L29.5592 4.14646L29.7532 4.53443L29.8502 4.89816V5.50436L29.7774 5.79534L29.5834 6.18332L29.3652 6.4258L28.953 6.66828L28.7105 6.81377L28.4923 7.00776L28.4438 7.129V7.29874L28.565 7.49273L28.7347 7.54122L28.6862 7.66246L28.5408 7.85645L28.3468 7.97769L28.1043 8.05044L27.7648 8.07468L27.4253 8.00194L27.2313 7.90495L27.0616 7.75946L26.9161 7.51697L26.8434 7.20175V6.95926L26.9161 6.71678L27.1586 6.32881L27.2071 6.23181L27.1828 6.08632L27.0859 5.96508L26.9161 5.89234H26.7221L26.5766 5.98933L26.4069 6.18332L26.1887 6.64403L26.0674 7.05626L25.9947 7.58972V7.92919L26.0674 8.43841L26.1887 8.80213L26.3584 9.11736L26.5766 9.38409L26.7706 9.55383L27.1101 9.74782L27.3526 9.84481L27.6678 9.91756L27.8618 9.9418H28.5408L28.8317 9.86906L29.0742 9.72357L29.244 9.52958L29.3652 9.31135L29.3894 9.21435L29.2925 9.16586L29.147 8.94762L29.05 8.72939L29.0257 8.6324V8.22017L29.1227 7.95344L29.2682 7.73521L29.4379 7.56547L29.7774 7.39573L29.8987 7.37148H30.2624L30.5049 7.44423L30.7473 7.61397L30.8928 7.7837L31.0141 8.02619L31.0626 8.19593V8.6324L30.9656 8.92338L30.7716 9.19011L30.5049 9.38409L30.3836 9.43259V9.60233L30.4564 9.84481L30.6019 10.0873L30.8201 10.257L31.2081 10.451L31.693 10.5965L31.9598 10.645H32.469L32.857 10.548L33.1964 10.3783L33.4147 10.2085L33.6329 9.9903L33.8754 9.62658L34.0451 9.2386L34.1664 8.85063L34.2391 8.41416V7.73521L34.1664 7.39573L34.0451 7.1775L33.9239 7.10475H33.6329L33.4874 7.20175L33.4389 7.34724L33.5359 7.7837V8.09893L33.4389 8.36566L33.2692 8.60815L33.0752 8.77789L32.8085 8.87488H32.3962L32.1053 8.77789L31.8628 8.6324L31.6688 8.43841L31.5718 8.19593L31.5475 8.05044L31.79 8.00194L31.9113 7.90495L31.9598 7.80795V7.58972L31.8385 7.34724L31.6445 7.10475L31.4263 6.86227L31.3051 6.66828L31.2081 6.3773L31.1838 6.23181V5.86809L31.2566 5.52861L31.4021 5.16489L31.6203 4.84966L31.887 4.58293L32.2265 4.38894L32.566 4.29195L32.76 4.2677H33.2207L33.5844 4.34045L33.8754 4.46169L34.1421 4.63143L34.3846 4.84966L34.5543 5.0194L34.7968 5.35887L34.8938 5.52861L34.9181 5.06789L34.9666 4.80116L35.0878 4.55868L35.306 4.3162L35.4273 4.19496L35.6455 4.04947L35.9607 3.92823L36.6639 3.73424L37.7794 3.34627L38.3856 3.10378L38.5068 3.07953L38.6523 3.20078L38.628 3.41901L38.1673 4.63143L37.6824 5.89234L37.1489 7.29874L34.8453 13.3608L34.3846 14.5975L34.0694 15.4462L34.0209 15.5189H15.8589L15.7619 15.3249L15.3254 14.1368L14.8162 12.7789L14.307 11.4452L13.8948 10.354L13.3856 9.02037L12.9733 7.92919L12.4641 6.59554L12.0034 5.38312L11.6397 4.43744L11.2517 3.41901L11.2032 3.24927L11.3487 3.07953L11.5669 3.12803L12.3671 3.44326L13.3613 3.78274L14.0645 3.97672L14.404 4.14646L14.7192 4.46169L14.8647 4.67992L14.9375 4.89816L14.9617 5.04365L14.986 5.52861L15.2284 5.14064L15.5194 4.82541L15.6892 4.65567L16.0044 4.46169L16.2954 4.34045L16.6591 4.2677H17.1198L17.5078 4.34045L17.7988 4.46169L18.0412 4.63143L18.2837 4.87391L18.502 5.21339L18.6232 5.52861L18.6959 5.91659V6.23181L18.6232 6.54704L18.502 6.78952L18.211 7.129L17.9927 7.41998L17.92 7.58972V7.80795L18.017 7.95344L18.1625 8.02619H18.308L18.3322 8.09893L18.2595 8.34142L18.1382 8.5354L17.9442 8.68089L17.6533 8.82638L17.4593 8.87488H17.0471L16.8046 8.77789L16.5621 8.55965L16.3924 8.26867L16.3439 8.09893V7.7837L16.4409 7.29874L16.3681 7.1775L16.2226 7.10475H15.9559L15.8104 7.20175L15.6892 7.46848L15.6407 7.73521V8.41416L15.7134 8.85063L15.8346 9.2386L16.0044 9.62658L16.1741 9.89331L16.3924 10.1358L16.6348 10.354L17.0228 10.548L17.4108 10.645H17.92L18.3807 10.548L18.8414 10.3783L19.1324 10.2085L19.2779 10.0873L19.4234 9.84481L19.4961 9.60233V9.43259L19.2537 9.31135L19.0839 9.16586L18.9142 8.92338L18.8172 8.6324L18.7929 8.38991L18.8414 8.09893L18.9627 7.80795L19.2052 7.54122L19.4961 7.39573L19.6174 7.37148H19.9811L20.2236 7.44423L20.4661 7.58972L20.6601 7.7837L20.8298 8.12318L20.854 8.22017V8.6324L20.757 8.92338L20.5631 9.19011L20.4903 9.21435L20.5873 9.45684L20.757 9.67507L20.951 9.82056L21.2178 9.91756L21.3633 9.9418H22.0422L22.5272 9.84481L22.9151 9.67507L23.2304 9.45684L23.4729 9.19011L23.6668 8.85063L23.7881 8.51115L23.8608 8.17168L23.8851 7.8807V7.63822L23.8366 7.20175L23.7396 6.78952L23.5941 6.4258L23.4244 6.11057L23.2546 5.94083L23.1334 5.89234H22.9636L22.7697 5.98933L22.6969 6.08632L22.6727 6.23181L22.8424 6.52279L23.0121 6.86227L23.0364 6.95926V7.1775L22.9879 7.44423L22.8667 7.68671L22.7212 7.85645L22.3817 8.02619L22.115 8.07468L21.7755 8.05044L21.533 7.97769L21.3148 7.8322L21.145 7.58972V7.54122L21.339 7.46848L21.436 7.29874V7.129L21.339 6.95926L21.1693 6.81377L20.757 6.57129L20.4903 6.40155L20.2963 6.18332L20.1023 5.79534L20.0296 5.50436L20.0054 5.11639L20.0538 4.75267L20.1508 4.46169L20.3206 4.14646L20.5873 3.85548L20.854 3.68574L21.1935 3.516L21.533 3.41901L21.6785 3.39476H22.0907L22.4787 3.49176L22.8667 3.68574L23.1334 3.85548L23.3031 4.00097L23.1819 3.73424L23.1091 3.34627V3.12803L23.1576 2.78855L23.2789 2.44908L23.4486 2.18235L23.6668 1.91562L23.9336 1.60039L24.2488 1.16392L24.467 0.775946L24.7338 0.218235L24.8308 0.0484966L24.8793 0Z" fill="white"/>
<path d="M34.1863 40.9825L23.6067 29.7796C23.43 29.5924 23.3729 29.3221 23.459 29.0795C23.5042 28.9523 23.5858 28.8412 23.6938 28.7602L24.129 28.4338C24.3262 28.2859 24.4422 28.0538 24.4422 27.8074C24.4422 27.6179 24.3735 27.4347 24.2487 27.292L19.0938 21.3958C18.9027 21.1772 18.5712 21.1533 18.3507 21.3423C18.1288 21.5325 18.103 21.8665 18.293 22.0885L21.5586 25.904C21.6377 25.9964 21.6812 26.114 21.6812 26.2357V26.266C21.6812 26.4042 21.6173 26.5348 21.5082 26.6197C21.4009 26.7032 21.2615 26.7334 21.1292 26.7019L21.0993 26.6948C20.9948 26.6699 20.9007 26.6128 20.8305 26.5316L17.5206 22.7061C17.3169 22.4707 16.9594 22.4491 16.7288 22.6582C16.5068 22.8595 16.485 23.2007 16.6794 23.4287L19.9591 27.2745C20.0382 27.3672 20.0817 27.4851 20.0817 27.607V27.6777C20.0817 27.7904 20.0299 27.8968 19.9414 27.9664C19.8609 28.0296 19.7576 28.0564 19.6565 28.0402L19.5529 28.0237C19.4146 28.0015 19.2882 27.9322 19.1951 27.8275L15.8446 24.0582C15.6681 23.8596 15.3676 23.8323 15.1582 23.9958C14.9346 24.1703 14.8991 24.4949 15.0797 24.7136L20.086 30.7757C20.2521 30.9768 20.4993 31.0932 20.7601 31.0932C20.996 31.0932 21.2218 30.998 21.3864 30.8291L21.721 30.4856C21.8069 30.3975 21.9164 30.3362 22.0364 30.3091C22.2832 30.2534 22.5396 30.3493 22.6893 30.5533L31.7988 42.9724C32.3452 43.7172 33.4161 43.8253 34.1003 43.2048C34.7463 42.6188 34.7851 41.6166 34.1863 40.9825Z" fill="white"/>
<path d="M32.4504 21.551L16.5266 40.8283C16.186 41.2407 15.9997 41.7588 15.9997 42.2936C15.9997 42.6557 16.1701 42.9967 16.4598 43.214L16.6425 43.3509C16.8163 43.4813 17.0278 43.5518 17.2451 43.5518C17.8924 43.5518 18.5 43.2399 18.8774 42.714L25.163 33.9521L26.3717 32.43C26.5697 32.1808 26.8999 32.0778 27.2044 32.1703L27.2347 32.1795C27.8636 32.3706 28.5345 32.3743 29.1655 32.1902L29.4357 32.0767C29.5301 32.037 29.6203 31.9878 29.7048 31.9299C29.7816 31.8772 29.8533 31.8177 29.9191 31.7518L29.9414 31.7295C30.0383 31.6327 30.1282 31.529 30.2104 31.4194L30.2324 31.3901L30.2515 31.3682C30.3518 31.2536 30.4427 31.1312 30.5234 31.0021L30.6689 30.7838L30.9114 30.3474L31.1538 29.8867L31.4448 29.3289L31.7601 28.747L32.0753 28.1408L32.3663 27.572L32.8512 26.6263L33.4099 25.5109L33.7494 24.7107L33.928 24.153L34.0987 23.571L34.1606 23.1588C34.1935 22.9333 34.1984 22.7047 34.1753 22.478L34.1606 22.3343L34.0987 22.0433L34.0404 21.8736L33.9829 21.7246C33.9466 21.6306 33.8937 21.544 33.8267 21.4688C33.5795 21.1911 33.1792 21.1091 32.8427 21.2673L32.7751 21.2991C32.6496 21.3581 32.5387 21.4441 32.4504 21.551Z" fill="white"/>
</g>
<defs>
<clipPath id="clip0_135_2430">
<rect width="50" height="50" fill="white"/>
</clipPath>
</defs>
</svg>
