<svg width="125" height="125" viewBox="0 0 125 125" fill="none" xmlns="http://www.w3.org/2000/svg">
<path d="M62.5004 33.8542C62.5004 33.8542 59.8962 18.2292 75.5212 18.2292" stroke="#8D6E63" stroke-width="8.65333" stroke-linecap="round"/>
<path d="M33.8545 88.5417C45.3604 88.5417 54.6878 79.2143 54.6878 67.7083C54.6878 56.2024 45.3604 46.875 33.8545 46.875C22.3485 46.875 13.0211 56.2024 13.0211 67.7083C13.0211 79.2143 22.3485 88.5417 33.8545 88.5417Z" fill="#FF80AB"/>
<path d="M91.1458 88.5417C102.652 88.5417 111.979 79.2143 111.979 67.7083C111.979 56.2024 102.652 46.875 91.1458 46.875C79.6399 46.875 70.3125 56.2024 70.3125 67.7083C70.3125 79.2143 79.6399 88.5417 91.1458 88.5417Z" fill="#E91E63"/>
<path d="M62.4996 88.5417C74.0055 88.5417 83.3329 79.2143 83.3329 67.7083C83.3329 56.2024 74.0055 46.875 62.4996 46.875C50.9937 46.875 41.6663 56.2024 41.6663 67.7083C41.6663 79.2143 50.9937 88.5417 62.4996 88.5417Z" fill="#FFF8E1"/>
<path d="M117.188 76.0833C117.188 72.3228 113.969 69.2708 109.99 69.2708C108.57 69.2708 107.247 69.6718 106.135 70.3515C106.008 70.4036 105.87 70.4322 105.75 70.5077C101.438 73.1405 96.8828 75.3671 92.1484 77.1327C82.7057 80.6822 72.6172 82.6197 62.513 82.5103C52.4062 82.6275 42.3203 80.6796 32.8776 77.1327C28.4635 75.4921 24.0365 73.5468 19.9583 71.1588C18.6667 69.9921 16.9323 69.2708 15.0104 69.2708C11.0312 69.2708 7.8125 72.3202 7.8125 76.0833C7.8125 76.4895 7.86719 76.8853 7.9375 77.2786C7.9401 77.4973 7.98698 77.7577 8.14323 78.1197C8.17448 78.19 8.20833 78.2577 8.24219 78.3228C8.375 78.6848 8.53906 79.0234 8.72917 79.3515C12.1458 86.6458 17.6042 92.8619 24.0312 97.8176C34.8333 105.956 48.6615 109.411 62.5 109.375C76.3385 109.461 90.2109 106.016 101.018 97.8775C106.398 93.776 111.042 88.8124 114.419 83.0442C115.135 81.7968 115.802 80.526 116.409 79.2291C116.435 79.1822 116.43 79.1119 116.438 79.0624C116.904 78.1614 117.188 77.1562 117.188 76.0833Z" fill="#FFE082"/>
<path d="M52.0492 57.5755C48.4893 51.1927 41.6794 46.875 33.8539 46.875C29.1768 46.875 24.8773 48.4349 21.4008 51.0365C22.0336 51.1797 22.5909 51.4792 22.8955 51.9687C23.7966 53.4167 23.5596 56.0443 23.656 57.7266C23.7549 59.4974 24.4398 61.6094 26.4763 62.0703C28.6117 62.5547 30.3174 60.7292 31.3617 59.2422C32.4138 57.7422 33.6351 55.8854 35.3461 55.0938C37.7263 53.9948 38.9945 55.7604 39.6299 56.8646C40.2653 57.9688 40.0987 60.2969 41.6664 62.5C42.9216 64.2656 44.7159 58.9531 46.8747 57.2917C49.3461 55.3932 51.7419 60.4896 52.0492 57.5755Z" fill="#4C2114"/>
<path d="M62.4997 46.875C57.0648 46.875 51.9424 49.1224 48.1768 52.5885C47.406 53.2969 46.1013 52.9479 45.4528 53.75C44.6195 54.7786 42.2367 55.8672 41.6664 62.5C43.8226 65.1042 44.5961 57.8203 46.0622 58.349C47.6351 58.9167 46.5857 61.362 46.333 62.7161C45.9789 64.6146 45.7419 66.5182 46.8695 67.6224C48.3304 69.0573 49.5075 67.7396 50.4346 66.4062C52.682 63.1797 53.4008 59.2318 57.6247 57.8307C61.9841 56.3828 65.0883 60.6797 66.4893 64.2318C67.294 66.2682 67.8278 68.599 68.0622 70.7474C68.2627 72.612 68.2758 74.9635 68.9268 76.7161C69.8695 79.2604 71.8773 77.7214 72.8877 76.0651C73.9346 74.3542 74.3669 72.4792 74.4607 70.526C74.5648 68.3724 74.6638 66.1901 74.7627 63.9922C74.8383 62.2188 75.195 60.1016 76.8435 59.1641C80.708 56.9609 80.5909 63.2292 83.044 64.3854C81.4476 54.4609 72.8721 46.875 62.4997 46.875Z" fill="#4C2114"/>
<path d="M107.548 55.0234C107.584 55.0234 107.597 54.9974 107.618 54.9844C103.805 50.0599 97.8548 46.875 91.1465 46.875C84.8652 46.875 79.248 49.6667 75.4277 54.0625L80.6908 58.3906L82.8887 64.2917C83.3939 64.6771 84.4121 64.3594 84.8001 63.9661C85.3366 63.4297 85.5267 62.7813 85.6543 62.0625C85.9277 60.4922 86.2142 58.8307 87.0631 57.4505C87.8783 56.1276 89.597 54.8385 91.1465 54.526C94.5085 53.8464 97.0189 55.9193 98.4147 58.9219C99.8079 61.9219 101.201 66.4323 103.527 66.0391C105.852 65.6458 105.743 61.6901 105.527 59.6823C105.308 57.6719 104.493 54.7969 107.548 55.0234Z" fill="#4C2114"/>
<path d="M107.634 55.0103L107.625 55.0131L107.639 55.0159L107.634 55.0103Z" fill="#4C2114"/>
<path d="M52.0837 40.9949C52.0837 35.1407 56.2504 32.3803 62.5004 34.6381C68.7504 32.3829 72.9171 35.1407 72.9171 40.9949C72.9171 46.8543 68.253 49.4793 62.5004 49.4793C56.7478 49.4793 52.0837 46.8543 52.0837 40.9949Z" fill="#F44336"/>
</svg>
