<svg width="125" height="125" viewBox="0 0 125 125" fill="none" xmlns="http://www.w3.org/2000/svg">
<path d="M29.0181 39.0625L33.8541 72.9167H91.1457L95.9817 39.0625H29.0181Z" fill="#FFC107"/>
<path d="M101.562 39.0624V32.552C101.562 30.3958 99.8125 28.6458 97.6562 28.6458H27.3438C25.1875 28.6458 23.4375 30.3958 23.4375 32.552V39.0624H101.562Z" fill="#795548"/>
<path d="M34.2265 75.521L39.0624 109.375H85.9374L90.7734 75.521H34.2265Z" fill="#77574F"/>
<path d="M62.5 85.9377C69.6912 85.9377 75.5209 80.108 75.5209 72.9168C75.5209 65.7256 69.6912 59.896 62.5 59.896C55.3088 59.896 49.4792 65.7256 49.4792 72.9168C49.4792 80.108 55.3088 85.9377 62.5 85.9377Z" fill="#77574F"/>
<path d="M52.083 72.9166C52.083 71.0103 52.6325 69.2473 53.5283 67.7083H33.1116L34.971 80.7291H55.6767C53.4918 78.8202 52.083 76.0442 52.083 72.9166Z" fill="#4E342E"/>
<path d="M71.471 67.7083C72.3668 69.2473 72.9163 71.0103 72.9163 72.9166C72.9163 76.0442 71.5075 78.8202 69.3226 80.7291H90.0283L91.8877 67.7083H71.471Z" fill="#4E342E"/>
<path d="M93.75 15.625H31.25L28.6458 28.6458H96.3541L93.75 15.625Z" fill="#4E342E"/>
<path d="M62.5 54.6874C72.5677 54.6874 80.7292 62.8489 80.7292 72.9166C80.7292 82.9843 72.5677 91.1457 62.5 91.1457C52.4323 91.1457 44.2709 82.9843 44.2709 72.9166C44.2709 62.8489 52.4323 54.6874 62.5 54.6874ZM62.5 52.0833C51.013 52.0833 41.6667 61.4296 41.6667 72.9166C41.6667 84.4036 51.013 93.7499 62.5 93.7499C73.987 93.7499 83.3334 84.4036 83.3334 72.9166C83.3334 61.4296 73.987 52.0833 62.5 52.0833Z" fill="#5D4037"/>
<path d="M62.5 54.6875C52.4323 54.6875 44.2708 62.849 44.2708 72.9167C44.2708 82.9844 52.4323 91.1458 62.5 91.1458C72.5677 91.1458 80.7291 82.9844 80.7291 72.9167C80.7291 62.849 72.5677 54.6875 62.5 54.6875ZM62.5 83.3333C56.7474 83.3333 52.0833 78.6693 52.0833 72.9167C52.0833 67.1641 56.7474 62.5 62.5 62.5C68.2526 62.5 72.9166 67.1641 72.9166 72.9167C72.9166 78.6693 68.2526 83.3333 62.5 83.3333Z" fill="#FFF3E0"/>
</svg>
