<svg width="125" height="125" viewBox="0 0 125 125" fill="none" xmlns="http://www.w3.org/2000/svg">
<path d="M93.6302 20.953C92.9636 17.3306 89.3151 14.7525 85.3125 15.9009C83.2292 16.4999 81.5573 18.2212 80.9818 20.3098C80.7292 21.2212 80.6745 22.1093 80.7813 22.9452C81.1615 25.9452 80.1146 28.9452 77.9766 31.0832L63.6459 45.4139L69.1693 50.9374L83.5 36.6067C85.6381 34.4686 88.6381 33.4244 91.6407 33.802C92.4766 33.9087 93.362 33.8514 94.2709 33.6014C96.3594 33.0259 98.0834 31.3541 98.6823 29.2707C99.8308 25.2707 97.2552 21.6197 93.6302 20.953Z" fill="#D7CCC8"/>
<path d="M114.419 41.7811C114.75 40.2915 114.669 38.6509 113.341 36.7759C112.172 35.1274 110.323 33.9269 108.3 33.8566C104.602 33.7316 101.563 36.6925 101.563 40.3644C101.563 40.38 101.563 40.3957 101.563 40.4113C101.583 43.1639 100.284 45.7524 97.8204 46.9842L78.9818 56.4035L82.4766 63.3931L102.898 53.1821C105.156 52.0519 107.755 52.4165 109.906 53.7394C111.393 54.6535 113.273 54.9816 115.245 54.4035C117.268 53.8097 118.917 52.1613 119.508 50.1352C120.68 46.1014 118.073 42.4269 114.419 41.7811Z" fill="#D7CCC8"/>
<path d="M80.7292 49.4791C80.7292 41.2629 83.5 36.6067 83.5 36.6067L77.9766 31.0833C70.9427 38.1171 46.875 36.4583 46.875 36.4583L80.7292 49.4791Z" fill="#BF360C"/>
<path d="M5.20837 93.7499C5.20837 93.7499 23.1641 109.375 52.0834 109.375C81.0026 109.375 104.167 92.6093 104.167 78.1249C104.167 63.6405 83.3334 49.4791 83.3334 49.4791C83.3334 49.4791 62.1224 36.4583 46.875 36.4583C5.20577 36.4583 5.20837 93.7499 5.20837 93.7499Z" fill="#E64A19"/>
<path d="M102.44 70.6042C100.615 66.3854 97.5755 62.4323 94.4297 59.1016C74.2682 61.5625 39.0625 72.9167 39.0625 72.9167C39.0625 72.9167 45.5729 88.5417 65.1042 88.5417C82.4974 88.5417 90.5495 84.3854 102.44 70.6042Z" fill="#D84315"/>
<path d="M46.875 36.4583C67.1302 36.4583 76.5443 46.8749 88.5417 46.8749C96.6901 46.8749 97.8203 46.8749 97.8203 46.8749L101.237 54.1171C101.237 54.1171 83.961 83.3333 62.5 83.3333C46.875 83.3333 39.0625 72.9166 39.0625 72.9166C39.0625 72.9166 36.0235 65.1041 26.0417 65.1041C13.0209 65.1041 5.20837 93.7499 5.20837 93.7499C5.20837 93.7499 5.20837 36.4583 46.875 36.4583Z" fill="#FF7043"/>
<path d="M33.8542 52.0833C33.8542 53.5208 32.6875 54.6874 31.25 54.6874C29.8125 54.6874 28.6459 53.5208 28.6459 52.0833C28.6459 50.6458 29.8125 49.4791 31.25 49.4791C32.6875 49.4791 33.8542 50.6458 33.8542 52.0833ZM41.6667 44.2708C40.2292 44.2708 39.0625 45.4374 39.0625 46.8749C39.0625 48.3124 40.2292 49.4791 41.6667 49.4791C43.1042 49.4791 44.2709 48.3124 44.2709 46.8749C44.2709 45.4374 43.1042 44.2708 41.6667 44.2708ZM41.6667 54.6874C40.2292 54.6874 39.0625 55.8541 39.0625 57.2916C39.0625 58.7291 40.2292 59.8958 41.6667 59.8958C43.1042 59.8958 44.2709 58.7291 44.2709 57.2916C44.2709 55.8541 43.1042 54.6874 41.6667 54.6874Z" fill="#F4511E"/>
</svg>
