<svg width="125" height="125" viewBox="0 0 125 125" fill="none" xmlns="http://www.w3.org/2000/svg">
<path d="M52.0833 15.625L15.625 109.375L109.375 72.9167L52.0833 15.625Z" fill="#FFD54F"/>
<path d="M39.0646 83.333C31.8745 83.333 26.0411 89.1611 26.0411 96.3512C26.0411 99.3382 27.088 102.06 28.7833 104.257L51.9708 95.2393C51.3979 88.5804 45.8719 83.333 39.0646 83.333Z" fill="#FF3D00"/>
<path d="M53.3876 59.8958C59.8597 59.8958 65.1063 54.6491 65.1063 48.177C65.1063 41.7049 59.8597 36.4583 53.3876 36.4583C46.9155 36.4583 41.6688 41.7049 41.6688 48.177C41.6688 54.6491 46.9155 59.8958 53.3876 59.8958Z" fill="#FF3D00"/>
<path d="M72.9164 52.0833C68.6065 52.0833 65.1039 55.5859 65.1039 59.901C65.1039 64.2083 68.6065 67.7083 72.9164 67.7083C77.2263 67.7083 80.7289 64.2083 80.7289 59.901C80.7289 55.5859 77.2263 52.0833 72.9164 52.0833ZM72.9164 63.802C70.7575 63.802 69.0101 62.0546 69.0101 59.8958C69.0101 57.7369 70.7575 55.9895 72.9164 55.9895C75.0752 55.9895 76.8226 57.7369 76.8226 59.8958C76.8226 62.0546 75.0752 63.802 72.9164 63.802Z" fill="#3E2723"/>
<path d="M41.6661 65.104C37.3562 65.104 33.8536 68.6066 33.8536 72.9217C33.8536 77.229 37.3562 80.729 41.6661 80.729C45.976 80.729 49.4786 77.229 49.4786 72.9217C49.4786 68.6066 45.976 65.104 41.6661 65.104ZM41.6661 76.8228C39.5073 76.8228 37.7599 75.0754 37.7599 72.9165C37.7599 70.7576 39.5073 69.0103 41.6661 69.0103C43.825 69.0103 45.5724 70.7576 45.5724 72.9165C45.5724 75.0754 43.825 76.8228 41.6661 76.8228Z" fill="#3E2723"/>
<path d="M77.7918 84.6927C76.7814 82 73.7788 80.6328 71.0861 81.6458C68.3934 82.6563 54.8361 90.2292 55.8439 92.9219C55.9325 93.1615 56.1695 93.3386 56.4637 93.4922L77.909 85.1511C77.87 85 77.8491 84.8438 77.7918 84.6927Z" fill="#8D6E63"/>
<path d="M65.5965 89.2656C64.3308 85.3072 64.797 81.7317 64.797 81.7317C64.8829 81.6197 64.8855 81.4869 64.8751 81.3515C65.0027 80.8567 65.0288 80.3307 64.8334 79.8124C64.3282 78.4635 62.8256 77.7838 61.4819 78.289C61.1381 78.4192 60.8386 78.6145 60.5913 78.8541C55.9793 81.7604 53.8569 87.6197 55.8465 92.9218C55.935 93.1614 56.0678 93.3697 56.172 93.6015L65.8204 89.8515C65.7501 89.6562 65.6642 89.4713 65.5965 89.2656Z" fill="#8D6E63"/>
<path d="M67.7083 74.466C67.7083 74.466 66.3125 60.4765 52.0833 65.4999C53.6172 80.0546 67.7083 74.466 67.7083 74.466Z" fill="#689F38"/>
<path d="M87.4873 65.1042C87.4873 65.1042 73.4951 66.4975 78.5211 80.7292C93.0758 79.1928 87.4873 65.1042 87.4873 65.1042Z" fill="#689F38"/>
<path d="M109.005 70.8023C106.591 65.1278 100.992 48.5601 88.7292 36.2997C76.7995 24.3622 61.0182 17.7997 54.013 15.8986C51.8281 15.3101 51.3438 15.1903 50.487 17.3648C49.7891 19.1252 47.8047 25.1434 46.8255 27.9611C46.6589 28.4403 46.5677 28.8309 46.5104 29.1851C69.1537 37.9116 87.1615 55.9403 95.862 78.5991C95.9271 78.5835 95.9844 78.5965 96.0547 78.5731C97.8646 77.9976 105.094 75.4741 107.013 74.8335C108.932 74.1825 109.977 73.0809 109.005 70.8023Z" fill="#FF9800"/>
</svg>
