<svg width="125" height="125" viewBox="0 0 125 125" fill="none" xmlns="http://www.w3.org/2000/svg">
<path d="M106.771 31.25H13.0211" stroke="#5D4037" stroke-width="2.5"/>
<path d="M106.729 18.2292L12.9794 23.4376" stroke="#5D4037" stroke-width="2.5"/>
<path d="M35.7291 73.0521C36.4765 72.5 37.5416 71.8385 38.8906 71.388C39.8281 71.0729 40.7656 70.9193 41.6901 70.901C41.7474 70.901 41.8047 70.9063 41.8619 70.9063C44.3229 70.9115 46.6901 71.9427 48.7135 73.9687C49.8203 75.0781 50.901 75.4714 51.8697 75.5052C51.9661 75.5052 52.0625 75.5026 52.1562 75.5C53.7317 75.4323 54.9739 74.4245 55.4609 73.9531C55.6224 73.7891 57.2526 72.2057 59.7187 71.3854C60.6484 71.0755 61.5755 70.9219 62.4921 70.901C62.5703 70.8984 62.651 70.9062 62.7317 70.9089C65.177 70.9271 67.5312 71.9505 69.5468 73.9687C70.6901 75.112 71.8073 75.5078 72.7994 75.5156C72.8385 75.5156 72.8724 75.5052 72.9114 75.5052C74.5234 75.4687 75.7968 74.4323 76.2942 73.9531C77.8463 72.401 80.388 71.0052 83.2239 70.9167C83.3307 70.9115 83.4349 70.9062 83.5468 70.9089C85.7708 70.9193 88.1588 71.7474 90.3776 73.9687C91.414 75 92.4453 75.4922 93.5416 75.5C93.6119 75.5 93.6822 75.5078 93.7526 75.5078C94.1197 75.487 94.4895 75.4219 94.875 75.2917C96.164 74.862 97.1015 73.9766 97.1119 73.9661C97.289 73.7891 98.9192 72.2057 101.385 71.3854C102.312 71.0755 103.242 70.9219 104.156 70.901C104.224 70.8984 104.292 70.9089 104.359 70.9089C106.411 70.9115 108.401 71.6276 110.177 73.0469C110.555 72.9245 110.909 72.7422 111.208 72.4427C112.227 71.4245 112.227 69.7786 111.208 68.7604C108.375 65.9219 104.878 65.0078 101.383 66.1771C98.9192 66.9974 97.289 68.5807 97.1093 68.7578C97.0989 68.7682 96.1614 69.6536 94.8724 70.0833C93.2526 70.6302 91.8229 70.2057 90.375 68.7604C85.2083 63.5859 79.1093 65.9271 76.2916 68.7448C75.4817 69.526 72.6093 71.8229 69.5442 68.7604C66.7083 65.9219 63.2135 65.0078 59.7161 66.1771C57.25 66.9974 55.6198 68.5833 55.4583 68.7448C54.6484 69.5234 51.7786 71.8307 48.7109 68.7604C45.8776 65.9271 42.3828 65.0026 38.8854 66.1797C36.4218 67 34.7916 68.5833 34.6119 68.7604C33.6015 69.7708 33.6015 71.401 34.6041 72.4193C34.9296 72.7474 35.3203 72.9323 35.7291 73.0521Z" fill="#FFE082"/>
<path d="M31.2707 93.9897C31.2681 93.909 31.2603 93.8257 31.2629 93.7424C31.2837 92.8257 31.4348 91.9012 31.7447 90.9741C32.565 88.5106 34.1483 86.8804 34.328 86.7007C34.7968 86.2137 35.8306 84.9507 35.8697 83.3413C35.8697 83.258 35.8619 83.1772 35.8619 83.0913C35.8228 82.1304 35.4296 81.0653 34.3332 79.9663C32.1197 77.7528 31.2916 75.3752 31.2759 73.1538C31.2707 73.0262 31.2759 72.9038 31.2837 72.7814C31.3827 69.9559 32.7785 67.4194 34.3332 65.8673C34.802 65.383 35.8332 64.12 35.8723 62.5106C35.8749 62.4246 35.8645 62.3413 35.8645 62.2554C35.8228 61.2944 35.4296 60.2293 34.3358 59.133C32.3228 57.12 31.2968 54.771 31.2785 52.3257C31.2759 52.2397 31.2681 52.1564 31.2707 52.0731C31.2889 51.159 31.4426 50.2319 31.7525 49.3049C32.5754 46.8387 34.1587 45.2085 34.3358 45.0314C34.8046 44.547 35.8358 43.284 35.8749 41.6746C35.8775 41.5887 35.8671 41.5054 35.8671 41.4194C35.8254 40.4585 35.4322 39.3934 34.3384 38.297C32.3254 36.284 31.2994 33.9351 31.2837 31.4871C31.2811 31.4064 31.2733 31.3257 31.2759 31.2476C31.2942 30.3309 31.4478 29.4038 31.7577 28.4741C32.2108 27.1147 32.8801 26.047 33.4322 25.297C33.3124 24.8986 33.1301 24.5158 32.815 24.2007C31.7968 23.1825 30.1509 23.1825 29.1327 24.2007C28.9556 24.3778 27.3723 26.008 26.5494 28.4741C25.3827 31.9767 26.2994 35.4663 29.1327 38.297C32.203 41.37 29.8983 44.2397 29.1327 45.0288C28.9556 45.2059 27.3723 46.8361 26.5494 49.3022C25.3827 52.8075 26.2994 56.297 29.1327 59.1304C32.203 62.2007 29.8983 65.0705 29.1327 65.8621C26.2994 68.6955 23.9608 74.7892 29.1327 79.9611C32.203 83.034 29.8957 85.9012 29.1301 86.6955C28.953 86.8726 27.3697 88.5028 26.5468 90.9689C25.3801 94.4741 26.2968 97.9637 29.1327 100.794C29.6301 101.307 30.2968 101.563 30.9634 101.563C31.6301 101.563 32.2968 101.307 32.8072 100.8C33.1067 100.5 33.2889 100.143 33.4113 99.7684C31.9999 98.0028 31.2863 96.0314 31.2707 93.9897Z" fill="#FFE082"/>
<path d="M72.7373 80.7293C70.2686 80.7293 67.9014 79.6825 65.8701 77.6512C62.7946 74.5783 59.9248 76.883 59.1201 77.6668C56.2998 80.4845 50.2113 82.8283 45.0342 77.6512C41.9665 74.5783 39.0941 76.8856 38.2868 77.6668C37.2581 78.6616 35.6123 78.6486 34.6123 77.6278C33.6097 76.6069 33.6097 74.9767 34.6201 73.9689C34.7972 73.7918 36.4274 72.2085 38.8936 71.3882C42.391 70.2111 45.8857 71.1356 48.7191 73.9689C51.7868 77.0418 54.6592 74.7345 55.4665 73.9533C55.6279 73.7892 57.2581 72.2059 59.7243 71.3856C63.2243 70.2163 66.7191 71.133 69.5524 73.9689C72.6175 77.034 75.4899 74.7345 76.2998 73.9533C79.1175 71.1356 85.2165 68.797 90.3831 73.9689C91.8311 75.4116 93.2581 75.8387 94.8805 75.2918C96.1696 74.8621 97.1071 73.9767 97.1175 73.9663C97.2946 73.7892 98.9248 72.2059 101.391 71.3856C104.888 70.2163 108.386 71.133 111.216 73.9689C112.235 74.9871 112.235 76.633 111.216 77.6512C110.198 78.6694 108.552 78.6694 107.534 77.6512C106.086 76.2033 104.659 75.7788 103.037 76.3257C101.748 76.7554 100.808 77.6408 100.8 77.6486C100.623 77.8257 98.9925 79.409 96.5264 80.2319C93.0186 81.396 89.5316 80.4845 86.7008 77.6512C83.6253 74.5783 80.7607 76.8882 79.9508 77.6668C79.7868 77.8309 78.1592 79.4116 75.693 80.2319C74.7034 80.5679 73.7113 80.7293 72.7373 80.7293Z" fill="#FFC107"/>
<path d="M26.5364 90.974C27.3567 88.5105 28.94 86.8803 29.1197 86.7006C29.5884 86.2136 30.6197 84.9506 30.6614 83.3412C30.6614 83.2579 30.6536 83.1772 30.6536 83.0912C30.6145 82.1303 30.2213 81.0652 29.1249 79.9662C26.914 77.7553 26.0832 75.3777 26.0676 73.1589C26.0624 73.0313 26.0676 72.9089 26.0728 72.7865C26.1718 69.9584 27.5676 67.4193 29.1223 65.8673C29.5911 65.3829 30.6223 64.1199 30.6614 62.5131C30.664 62.4272 30.6536 62.3438 30.6536 62.2553C30.6119 61.297 30.2187 60.2319 29.1249 59.1355C27.1119 57.1225 26.0858 54.7761 26.0676 52.3308C26.065 52.2449 26.0572 52.1615 26.0598 52.0756C26.078 51.1589 26.2317 50.2319 26.5416 49.3048C27.3645 46.8386 28.9478 45.2084 29.1249 45.0313C29.5937 44.547 30.6249 43.2839 30.664 41.6772C30.6666 41.5912 30.6562 41.5053 30.6562 41.4194C30.6145 40.4584 30.2213 39.3933 29.1275 38.297C27.1145 36.2839 26.0884 33.9376 26.0728 31.4923C26.0702 31.4115 26.0624 31.3282 26.065 31.2501C26.0832 30.3334 26.2369 29.4063 26.5468 28.474C26.9999 27.1147 27.6692 26.047 28.2213 25.2996C28.1015 24.9011 27.9192 24.5209 27.6041 24.2058C26.5858 23.1876 24.94 23.1876 23.9218 24.2058C23.7447 24.3829 22.1614 26.0131 21.3384 28.4792C20.1718 31.9819 21.0884 35.4714 23.9218 38.3022C26.9921 41.3751 24.6874 44.2449 23.9218 45.0339C23.7447 45.211 22.1614 46.8412 21.3384 49.3074C20.1718 52.8126 21.0884 56.3022 23.9218 59.1355C26.9921 62.2058 24.6874 65.0756 23.9218 65.8673C21.0884 68.7006 18.7499 74.7944 23.9218 79.9662C26.9921 83.0391 24.6848 85.9063 23.9192 86.7006C22.9009 87.7188 22.9009 89.3647 23.9192 90.3829C24.427 90.8907 25.0963 91.1459 25.7629 91.1459C26.0286 91.1459 26.2864 91.0756 26.5416 90.9923C26.5312 90.9871 26.5338 90.9818 26.5364 90.974Z" fill="#FFC107"/>
<path d="M36.1721 101.563C35.5055 101.563 34.8388 101.307 34.331 100.8C31.4976 97.9662 30.5784 94.4766 31.745 90.974C32.5654 88.5105 34.1487 86.8803 34.3284 86.7006C35.094 85.9063 37.4013 83.0391 34.331 79.9662C29.1591 74.7943 31.4976 68.7006 34.331 65.8673C35.0966 65.0756 37.4013 62.2058 34.331 59.1355C31.4976 56.3022 30.581 52.81 31.7476 49.3074C32.5706 46.8412 34.1539 45.211 34.331 45.0339C35.0966 44.2423 37.4013 41.3725 34.331 38.3022C31.4976 35.4714 30.581 31.9819 31.7476 28.4792C32.568 26.0157 34.1513 24.3855 34.331 24.2058C35.3492 23.1876 36.995 23.1876 38.0133 24.2058C39.0263 25.2188 39.0315 26.8595 38.0237 27.8777C37.2424 28.6902 34.9456 31.5548 38.0133 34.6199C40.8466 37.4532 41.7633 40.9428 40.5966 44.448C39.7763 46.9115 38.193 48.5417 38.0133 48.7214C37.2477 49.5131 34.9404 52.3855 38.0133 55.4584C40.8466 58.2917 41.7633 61.7813 40.5966 65.2813C39.7763 67.7475 38.193 69.3751 38.0133 69.5548C37.2477 70.3464 34.943 73.2162 38.0133 76.2891C40.8466 79.1225 41.7633 82.6121 40.594 86.1147C39.7711 88.5782 38.1878 90.2084 38.0107 90.3881C37.245 91.1798 34.9404 94.0496 38.0133 97.1225C39.0315 98.1407 39.0315 99.7865 38.0133 100.805C37.5055 101.307 36.8388 101.563 36.1721 101.563Z" fill="#FFC107"/>
<path d="M100.802 63.5494C99.784 62.5338 98.1382 62.5338 97.12 63.5494C97.1095 63.5572 96.172 64.4453 94.883 64.8749C93.2606 65.4192 91.8335 64.9973 90.3856 63.552C85.2189 58.3802 79.1226 60.7187 76.3022 63.539C75.4923 64.3177 72.6252 66.6171 69.5549 63.552C66.7163 60.7161 63.2267 59.7994 59.7267 60.9687C57.2606 61.7916 55.6304 63.3749 55.4689 63.5364C54.6616 64.3177 51.7892 66.6223 48.7215 63.552C45.8882 60.7187 42.396 59.7994 38.896 60.9687C38.2762 61.1744 37.7111 61.4296 37.2085 61.6979V66.9192C37.7111 66.6484 38.2658 66.3906 38.8934 66.1796C39.8309 65.8645 40.7658 65.7109 41.6903 65.6927C41.7528 65.6927 41.8179 65.6979 41.8804 65.7005C44.3361 65.7083 46.6981 66.7369 48.7189 68.7604C49.8257 69.8697 50.9038 70.2604 51.8726 70.2942C51.9377 70.2942 52.0028 70.302 52.0679 70.2994C53.6903 70.2682 54.9689 69.2239 55.4663 68.7447C55.6278 68.5807 57.258 66.9973 59.7241 66.177C60.6564 65.8645 61.5887 65.7109 62.508 65.6927C62.5783 65.6927 62.6512 65.6979 62.7215 65.7005C65.1746 65.7109 67.5314 66.7369 69.5522 68.7604C70.6981 69.9036 71.8179 70.2994 72.8127 70.3072C72.8335 70.3072 72.8569 70.302 72.8778 70.2994C74.5106 70.2812 75.7996 69.2291 76.297 68.7447C77.8491 67.1927 80.3934 65.7942 83.2319 65.7057C83.3387 65.7005 83.4429 65.6979 83.5548 65.7005C85.7788 65.7109 88.1668 66.5416 90.3804 68.7604C91.4116 69.789 92.4351 70.276 93.521 70.289C93.6017 70.289 93.6825 70.2994 93.7632 70.2968C94.1278 70.276 94.495 70.2135 94.8778 70.0833C96.1668 69.6536 97.1043 68.7682 97.1147 68.7578C97.2918 68.5807 98.922 66.9973 101.388 66.177C101.396 66.1744 101.404 66.1744 101.412 66.1718C101.698 65.2734 101.513 64.2604 100.802 63.5494Z" fill="#FFC107"/>
<path d="M13.0209 75.5208C13.0209 96.0468 26.2318 103.029 44.599 109.375H75.1928C93.5599 103.029 106.771 96.0468 106.771 75.5208H13.0209Z" fill="#00BCD4"/>
<path d="M104.432 88.5417C105.948 84.9063 106.771 80.638 106.771 75.5234H13.0209C13.0209 80.638 13.8438 84.9063 15.3594 88.5417H104.432Z" fill="#0097A7"/>
</svg>
